<?xml version="1.0" encoding="UTF-8" standalone="no"?>
<svg
   viewBox="0 0 593.51306 394.59818"
   version="1.1"
   id="svg1"
   xml:space="preserve"
   width="593.51306"
   height="394.59818"
   xmlns="http://www.w3.org/2000/svg"
   xmlns:svg="http://www.w3.org/2000/svg"><defs
     id="defs1" /><!--!Font Awesome Free 7.3.0 by @fontawesome - https://fontawesome.com License - https://fontawesome.com/license/free Copyright 2026 Fonticons, Inc.--><path
     id="path4-8"
     style="display:inline;fill:#000000;fill-opacity:1;stroke-width:0.851892"
     d="M 298.17083,5.0432277e-4 C 194.51927,3.4432277e-4 105.97374,51.907945 70.22791,125.19715 c -1.09184,-0.45212 -2.28985,-0.70383 -3.549,-0.70383 H 9.2410296 c -5.11922,0 -9.24102991710789,4.12016 -9.24102991710789,9.23936 v 127.13505 c 0,5.11918 4.12180991710789,9.23937 9.24102991710789,9.23937 H 66.67891 c 1.25969,0 2.45846,-0.25139 3.55067,-0.70383 35.74617,73.28833 124.2905,125.19511 227.94125,125.19493 103.3471,-3.4e-4 191.67723,-51.60408 227.62677,-124.5527 0.34031,0.0375 0.68591,0.0614 1.03659,0.0614 h 57.43787 c 5.11922,0 9.24104,-4.1202 9.24104,-9.23939 V 133.73243 c 0,-5.1192 -4.12182,-9.23938 -9.24104,-9.23938 h -57.43787 c -0.35068,0 -0.69628,0.0221 -1.03659,0.0596 C 489.84818,51.603985 401.51815,3.4432277e-4 298.17083,4.3227774e-6 Z M 297.84969,31.104565 c 113.56934,-2.5e-4 214.96995,80.151435 214.96986,167.510065 9e-5,87.35862 -102.64516,165.02299 -216.21441,165.02265 C 183.0364,363.63693 83.503712,284.106 83.503802,196.7478 83.503712,109.38958 184.28095,31.104905 297.84969,31.104565 Z m -115.50303,68.42258 c -0.47391,0 -5.89743,2.627995 -12.05296,5.838515 -14.34348,7.48108 -28.11181,20.57969 -33.56324,31.93261 -5.31325,11.06534 -6.27514,25.268 -2.24287,33.10738 8.1866,15.91607 21.79752,21.07915 55.69083,21.1226 l 18.71669,0.023 2.366,6.52396 c 3.40298,9.38069 13.58554,26.66434 23.70492,40.23531 l 8.7502,11.73348 2.19297,15.04791 c 2.74829,18.85538 6.78048,31.13883 14.04457,42.78599 6.86728,11.01105 16.26023,19.16375 26.07258,22.63002 20.08815,7.0961 41.93827,-4.66505 54.02033,-29.07749 5.35287,-10.81563 9.86821,-27.62646 11.40573,-42.46149 0.78433,-7.56847 1.75012,-9.89244 6.85006,-16.48216 12.04927,-15.56922 28.4935,-43.85716 28.4935,-49.01546 0,-1.12458 7.60418,-1.78539 25.96443,-2.25624 19.58272,-0.50227 27.49741,-1.23158 32.19722,-2.96824 29.65347,-10.95739 32.22199,-42.18737 5.6022,-68.1165 -5.84825,-5.69662 -13.21592,-11.04037 -20.35725,-14.76502 -6.15561,-3.21051 -11.51916,-5.838515 -11.91818,-5.838515 -1.41074,0 -13.64515,25.077165 -13.02131,26.689885 0.34832,0.9001 4.70712,3.6265 9.68695,6.05806 12.90412,6.30085 26.46623,22.02987 22.44538,26.03265 -0.53372,0.53133 -11.70003,1.16019 -24.81305,1.39601 l -23.84136,0.42765 -2.34936,-7.39418 c -9.37907,-29.51128 -43.06946,-47.79903 -87.8165,-47.66776 -34.76763,0.10196 -60.08484,8.91932 -75.98984,26.46524 -6.9357,7.65121 -10.41036,13.63831 -13.10618,22.58846 l -1.75702,5.83845 h -20.28903 c -22.40052,0 -26.13929,-1.05115 -24.2906,-6.82844 1.96591,-6.14333 12.18891,-15.31984 23.16749,-20.79478 l 10.78011,-5.37596 -6.94159,-13.71675 c -3.81717,-7.54462 -7.32799,-13.718535 -7.80182,-13.718535 z m 114.43985,36.548245 c 20.25178,-0.14414 29.42225,1.42316 40.85092,6.98151 13.25748,6.44764 19.85161,15.66214 21.11762,29.51009 0,0 1.3151,5.38454 0.73043,7.99647 -2.6415,11.80033 -9.4411,20.21028 -15.52711,29.51203 -2.25679,3.44923 -5.04782,5.89526 -7.72191,9.65841 -15.8442,22.29677 -14.885,20.21014 -16.02789,34.84447 -1.59134,20.37642 -6.36954,34.30428 -14.78003,43.07544 -5.36257,5.59268 -10.11536,5.02908 -16.1011,-1.90678 -6.63113,-7.68381 -11.69191,-23.24228 -13.21432,-40.62625 -1.29233,-14.75701 -2.16916,-17.26081 -9.04138,-25.79806 -5.70913,-7.09235 -8.56426,-10.96044 -11.16996,-15.507 -1.80796,-3.15464 -11.82894,-15.6399 -15.30543,-24.67184 -2.01737,-5.24111 -3.00975,-16.57689 -3.00975,-16.57689 1.49565,-16.3601 10.80519,-26.74467 29.36368,-32.7529 9.65605,-3.12611 13.63339,-3.62335 29.83623,-3.7387 z m -257.9239,18.57526 h 20.22081 c -3.75967,13.74001 -5.80189,27.999 -5.80185,42.64951 0,14.17975 1.89599,27.99831 5.42415,41.33017 H 38.86261 c -3.46466,0 -6.25443,-2.78815 -6.25443,-6.2528 v -71.47415 c 0,-3.46465 2.78977,-6.25273 6.25443,-6.25273 z m 498.77166,1.31941 h 17.01622 c 3.46466,0 6.25443,2.78809 6.25443,6.25273 v 71.47415 c 0,3.46464 -2.78977,6.25281 -6.25443,6.25281 h -17.39393 c 3.75978,-13.73992 5.80173,-27.99916 5.80185,-42.64959 4e-5,-14.17984 -1.89603,-27.99823 -5.42414,-41.3301 z" /></svg>
